<mxfile host="app.diagrams.net" modified="2023-10-23T19:29:30.540Z" agent="Mozilla/5.0 (Macintosh; Intel Mac OS X 10_15_7) AppleWebKit/537.36 (KHTML, like Gecko) Chrome/118.0.0.0 Safari/537.36" etag="YxGZ_pih2kH-WraSJSCU" version="22.0.6" type="google">
  <diagram name="Página-1" id="ETXD-qW_VemGnOAaBExw">
    <mxGraphModel grid="1" page="1" gridSize="10" guides="1" tooltips="1" connect="1" arrows="1" fold="1" pageScale="1" pageWidth="827" pageHeight="1169" math="0" shadow="0">
      <root>
        <mxCell id="0" />
        <mxCell id="1" parent="0" />
        <mxCell id="0dv2OzpgNa8X-HNIvNgF-1" value="" style="shape=folder;fontStyle=1;spacingTop=10;tabWidth=60;tabHeight=20;tabPosition=left;html=1;whiteSpace=wrap;" vertex="1" parent="1">
          <mxGeometry x="50" y="30" width="450" height="300" as="geometry" />
        </mxCell>
        <mxCell id="0dv2OzpgNa8X-HNIvNgF-2" value="ConexionBDD" style="swimlane;fontStyle=1;align=center;verticalAlign=top;childLayout=stackLayout;horizontal=1;startSize=26;horizontalStack=0;resizeParent=1;resizeParentMax=0;resizeLast=0;collapsible=1;marginBottom=0;whiteSpace=wrap;html=1;" vertex="1" parent="1">
          <mxGeometry x="195" y="80" width="160" height="86" as="geometry" />
        </mxCell>
        <mxCell id="0dv2OzpgNa8X-HNIvNgF-3" value="+ conectarBDD()" style="text;strokeColor=none;fillColor=none;align=left;verticalAlign=top;spacingLeft=4;spacingRight=4;overflow=hidden;rotatable=0;points=[[0,0.5],[1,0.5]];portConstraint=eastwest;whiteSpace=wrap;html=1;" vertex="1" parent="0dv2OzpgNa8X-HNIvNgF-2">
          <mxGeometry y="26" width="160" height="26" as="geometry" />
        </mxCell>
        <mxCell id="0dv2OzpgNa8X-HNIvNgF-4" value="" style="line;strokeWidth=1;fillColor=none;align=left;verticalAlign=middle;spacingTop=-1;spacingLeft=3;spacingRight=3;rotatable=0;labelPosition=right;points=[];portConstraint=eastwest;strokeColor=inherit;" vertex="1" parent="0dv2OzpgNa8X-HNIvNgF-2">
          <mxGeometry y="52" width="160" height="8" as="geometry" />
        </mxCell>
        <mxCell id="0dv2OzpgNa8X-HNIvNgF-5" value="+ desconectarBDD()" style="text;strokeColor=none;fillColor=none;align=left;verticalAlign=top;spacingLeft=4;spacingRight=4;overflow=hidden;rotatable=0;points=[[0,0.5],[1,0.5]];portConstraint=eastwest;whiteSpace=wrap;html=1;" vertex="1" parent="0dv2OzpgNa8X-HNIvNgF-2">
          <mxGeometry y="60" width="160" height="26" as="geometry" />
        </mxCell>
        <mxCell id="0dv2OzpgNa8X-HNIvNgF-6" value="BDDCrearParticipante" style="swimlane;fontStyle=1;align=center;verticalAlign=top;childLayout=stackLayout;horizontal=1;startSize=26;horizontalStack=0;resizeParent=1;resizeParentMax=0;resizeLast=0;collapsible=1;marginBottom=0;whiteSpace=wrap;html=1;" vertex="1" parent="1">
          <mxGeometry x="105" y="200" width="340" height="90" as="geometry" />
        </mxCell>
        <mxCell id="0dv2OzpgNa8X-HNIvNgF-7" value="" style="line;strokeWidth=1;fillColor=none;align=left;verticalAlign=middle;spacingTop=-1;spacingLeft=3;spacingRight=3;rotatable=0;labelPosition=right;points=[];portConstraint=eastwest;strokeColor=inherit;" vertex="1" parent="0dv2OzpgNa8X-HNIvNgF-6">
          <mxGeometry y="26" width="340" height="8" as="geometry" />
        </mxCell>
        <mxCell id="0dv2OzpgNa8X-HNIvNgF-8" value="+ obtenerIdPorCorreo(correo: String): int&lt;br&gt;+ obtenerIdPorUsername(username: String): int&lt;br&gt;+ obtenerParticipante(idParticipante: int)" style="text;strokeColor=none;fillColor=none;align=left;verticalAlign=top;spacingLeft=4;spacingRight=4;overflow=hidden;rotatable=0;points=[[0,0.5],[1,0.5]];portConstraint=eastwest;whiteSpace=wrap;html=1;" vertex="1" parent="0dv2OzpgNa8X-HNIvNgF-6">
          <mxGeometry y="34" width="340" height="56" as="geometry" />
        </mxCell>
        <mxCell id="0dv2OzpgNa8X-HNIvNgF-9" value="" style="shape=folder;fontStyle=1;spacingTop=10;tabWidth=60;tabHeight=20;tabPosition=left;html=1;whiteSpace=wrap;" vertex="1" parent="1">
          <mxGeometry x="50" y="340" width="450" height="280" as="geometry" />
        </mxCell>
        <mxCell id="0dv2OzpgNa8X-HNIvNgF-10" value="&lt;font style=&quot;font-size: 10px;&quot;&gt;Controlador&lt;/font&gt;" style="text;html=1;strokeColor=none;fillColor=none;align=center;verticalAlign=middle;whiteSpace=wrap;rounded=0;" vertex="1" parent="1">
          <mxGeometry x="50" y="330" width="60" height="30" as="geometry" />
        </mxCell>
        <mxCell id="0dv2OzpgNa8X-HNIvNgF-11" value="ControladorParticipante" style="swimlane;fontStyle=1;align=center;verticalAlign=top;childLayout=stackLayout;horizontal=1;startSize=26;horizontalStack=0;resizeParent=1;resizeParentMax=0;resizeLast=0;collapsible=1;marginBottom=0;whiteSpace=wrap;html=1;" vertex="1" parent="1">
          <mxGeometry x="60" y="380" width="430" height="58" as="geometry" />
        </mxCell>
        <mxCell id="0dv2OzpgNa8X-HNIvNgF-12" value="+ obtenerParticipante(busqueda: String): Participante" style="text;strokeColor=none;fillColor=none;align=left;verticalAlign=top;spacingLeft=4;spacingRight=4;overflow=hidden;rotatable=0;points=[[0,0.5],[1,0.5]];portConstraint=eastwest;whiteSpace=wrap;html=1;" vertex="1" parent="0dv2OzpgNa8X-HNIvNgF-11">
          <mxGeometry y="26" width="430" height="24" as="geometry" />
        </mxCell>
        <mxCell id="0dv2OzpgNa8X-HNIvNgF-13" value="" style="line;strokeWidth=1;fillColor=none;align=left;verticalAlign=middle;spacingTop=-1;spacingLeft=3;spacingRight=3;rotatable=0;labelPosition=right;points=[];portConstraint=eastwest;strokeColor=inherit;" vertex="1" parent="0dv2OzpgNa8X-HNIvNgF-11">
          <mxGeometry y="50" width="430" height="8" as="geometry" />
        </mxCell>
        <mxCell id="0dv2OzpgNa8X-HNIvNgF-16" value="Participante" style="swimlane;fontStyle=1;align=center;verticalAlign=top;childLayout=stackLayout;horizontal=1;startSize=26;horizontalStack=0;resizeParent=1;resizeParentMax=0;resizeLast=0;collapsible=1;marginBottom=0;whiteSpace=wrap;html=1;" vertex="1" parent="1">
          <mxGeometry x="130" y="470" width="290" height="130" as="geometry" />
        </mxCell>
        <mxCell id="0dv2OzpgNa8X-HNIvNgF-17" value="" style="line;strokeWidth=1;fillColor=none;align=left;verticalAlign=middle;spacingTop=-1;spacingLeft=3;spacingRight=3;rotatable=0;labelPosition=right;points=[];portConstraint=eastwest;strokeColor=inherit;" vertex="1" parent="0dv2OzpgNa8X-HNIvNgF-16">
          <mxGeometry y="26" width="290" height="8" as="geometry" />
        </mxCell>
        <mxCell id="0dv2OzpgNa8X-HNIvNgF-18" value="-id: String&lt;br&gt;- nombre : String&lt;br&gt;- correo : String&lt;br&gt;- username : String&amp;nbsp;&lt;br&gt;- foto: String&lt;br&gt;- contraseña : String" style="text;strokeColor=none;fillColor=none;align=left;verticalAlign=top;spacingLeft=4;spacingRight=4;overflow=hidden;rotatable=0;points=[[0,0.5],[1,0.5]];portConstraint=eastwest;whiteSpace=wrap;html=1;" vertex="1" parent="0dv2OzpgNa8X-HNIvNgF-16">
          <mxGeometry y="34" width="290" height="96" as="geometry" />
        </mxCell>
        <mxCell id="0dv2OzpgNa8X-HNIvNgF-23" value="&lt;font style=&quot;font-size: 10px;&quot;&gt;Modelo&lt;br&gt;&lt;br&gt;&lt;/font&gt;" style="text;html=1;strokeColor=none;fillColor=none;align=center;verticalAlign=middle;whiteSpace=wrap;rounded=0;" vertex="1" parent="1">
          <mxGeometry x="50" y="30" width="60" height="30" as="geometry" />
        </mxCell>
        <mxCell id="0dv2OzpgNa8X-HNIvNgF-24" value="" style="shape=folder;fontStyle=1;spacingTop=10;tabWidth=60;tabHeight=20;tabPosition=left;html=1;whiteSpace=wrap;" vertex="1" parent="1">
          <mxGeometry x="50" y="660" width="450" height="270" as="geometry" />
        </mxCell>
        <mxCell id="0dv2OzpgNa8X-HNIvNgF-25" value="&lt;font style=&quot;font-size: 10px;&quot;&gt;Vista&lt;/font&gt;" style="text;html=1;strokeColor=none;fillColor=none;align=center;verticalAlign=middle;whiteSpace=wrap;rounded=0;" vertex="1" parent="1">
          <mxGeometry x="50" y="650" width="60" height="30" as="geometry" />
        </mxCell>
        <mxCell id="0dv2OzpgNa8X-HNIvNgF-37" value="VistaBuscarParticipantes" style="swimlane;fontStyle=1;align=center;verticalAlign=top;childLayout=stackLayout;horizontal=1;startSize=26;horizontalStack=0;resizeParent=1;resizeParentMax=0;resizeLast=0;collapsible=1;marginBottom=0;whiteSpace=wrap;html=1;" vertex="1" parent="1">
          <mxGeometry x="90" y="730" width="370" height="130" as="geometry" />
        </mxCell>
        <mxCell id="0dv2OzpgNa8X-HNIvNgF-38" value="+ busquedaEnBarraDeBusqueda" style="text;strokeColor=none;fillColor=none;align=left;verticalAlign=top;spacingLeft=4;spacingRight=4;overflow=hidden;rotatable=0;points=[[0,0.5],[1,0.5]];portConstraint=eastwest;whiteSpace=wrap;html=1;" vertex="1" parent="0dv2OzpgNa8X-HNIvNgF-37">
          <mxGeometry y="26" width="370" height="26" as="geometry" />
        </mxCell>
        <mxCell id="0dv2OzpgNa8X-HNIvNgF-39" value="" style="line;strokeWidth=1;fillColor=none;align=left;verticalAlign=middle;spacingTop=-1;spacingLeft=3;spacingRight=3;rotatable=0;labelPosition=right;points=[];portConstraint=eastwest;strokeColor=inherit;" vertex="1" parent="0dv2OzpgNa8X-HNIvNgF-37">
          <mxGeometry y="52" width="370" height="8" as="geometry" />
        </mxCell>
        <mxCell id="0dv2OzpgNa8X-HNIvNgF-40" value="+ mostrarParticipantes(participantes: List&amp;lt;Participante&amp;gt;)&lt;br style=&quot;border-color: var(--border-color);&quot;&gt;+ mostrarParticipante(participante: Participante)&lt;br style=&quot;border-color: var(--border-color);&quot;&gt;+ mensajeError(mensaje: String)&lt;br style=&quot;border-color: var(--border-color);&quot;&gt;+ obtenerTextoBarraDeBusqueda()" style="text;strokeColor=none;fillColor=none;align=left;verticalAlign=top;spacingLeft=4;spacingRight=4;overflow=hidden;rotatable=0;points=[[0,0.5],[1,0.5]];portConstraint=eastwest;whiteSpace=wrap;html=1;" vertex="1" parent="0dv2OzpgNa8X-HNIvNgF-37">
          <mxGeometry y="60" width="370" height="70" as="geometry" />
        </mxCell>
      </root>
    </mxGraphModel>
  </diagram>
</mxfile>
